<svg width="581" height="1064" viewBox="0 0 581 1064" fill="none" xmlns="http://www.w3.org/2000/svg">
<path opacity="0.25" d="M3.57628e-07 197.1V178.2C8 183.6 16.6 186.3 25.8 186.3C44 186.3 53.1 176.7 53.1 157.5V1.79999H71.7V154.5C71.7 187.5 57 204 27.6 204C16.8 204 7.6 201.7 3.57628e-07 197.1ZM244.69 128.1V1.79999H263.29V127.5C263.29 153.5 256.99 173.2 244.39 186.6C231.79 199.8 213.99 206.4 190.99 206.4C168.39 206.4 150.79 199.9 138.19 186.9C125.79 173.9 119.59 154.9 119.59 129.9V1.79999H138.19V129.6C138.19 149.8 142.89 164.7 152.29 174.3C161.89 183.7 174.79 188.4 190.99 188.4C226.79 188.4 244.69 168.3 244.69 128.1ZM414.091 8.99999V29.7C409.291 26.5 402.991 23.8 395.191 21.6C387.391 19.4 379.791 18.3 372.391 18.3C358.991 18.3 348.291 21.5 340.291 27.9C332.291 34.1 328.291 42.4 328.291 52.8C328.291 58.2 329.291 63 331.291 67.2C333.491 71.4 337.091 75.3 342.091 78.9C347.091 82.3 351.391 85 354.991 87C358.791 88.8 364.491 91.3 372.091 94.5C379.091 97.5 384.391 99.9 387.991 101.7C391.591 103.3 396.191 105.9 401.791 109.5C407.391 113.1 411.591 116.7 414.391 120.3C417.391 123.7 419.991 128.2 422.191 133.8C424.591 139.2 425.791 145.2 425.791 151.8C425.791 169.4 419.891 182.9 408.091 192.3C396.291 201.5 381.191 206.1 362.791 206.1C341.991 206.1 324.291 201.7 309.691 192.9V172.2C315.691 176.8 323.391 180.6 332.791 183.6C342.391 186.6 352.091 188.1 361.891 188.1C376.091 188.1 387.091 185 394.891 178.8C402.891 172.6 406.891 163.7 406.891 152.1C406.891 143.3 403.891 136.2 397.891 130.8C391.891 125.2 383.191 119.9 371.791 114.9C370.191 114.1 366.691 112.6 361.291 110.4C355.891 108 352.091 106.3 349.891 105.3C347.691 104.3 344.291 102.6 339.691 100.2C335.091 97.8 331.691 95.7 329.491 93.9C327.491 92.1 324.891 89.7 321.691 86.7C318.491 83.7 316.191 80.7 314.791 77.7C313.391 74.7 312.091 71.2 310.891 67.2C309.691 63 309.091 58.6 309.091 54C309.091 37 315.191 23.8 327.391 14.4C339.591 4.8 354.491 -2.14577e-06 372.091 -2.14577e-06C388.891 -2.14577e-06 402.891 2.99999 414.091 8.99999ZM580.395 1.79999V18.9H524.295V204H505.695V18.9H449.895V1.79999H580.395ZM33.6 616.9H74.1C87.9 616.9 100.1 614.5 110.7 609.7C121.3 604.9 129.7 598.4 135.9 590.2C142.1 582 146.7 573 149.7 563.2C152.9 553.4 154.5 542.9 154.5 531.7C154.5 508.7 146.8 489.2 131.4 473.2C116.2 457 96.6 448.9 72.6 448.9H33.6V616.9ZM15 431.8H72.6C102.2 431.8 126.5 441 145.5 459.4C164.5 477.8 174 501.9 174 531.7C174 549.9 170.5 566.6 163.5 581.8C156.5 596.8 145.2 609.3 129.6 619.3C114.2 629.1 95.7 634 74.1 634H15V431.8ZM202.582 532C202.582 500.2 210.482 474.9 226.282 456.1C242.282 437.1 263.882 427.6 291.082 427.6C319.082 427.6 340.882 437 356.482 455.8C372.082 474.4 379.882 499.8 379.882 532C379.882 564 371.982 589.4 356.182 608.2C340.382 627 318.882 636.4 291.682 636.4C264.882 636.4 243.282 626.9 226.882 607.9C210.682 588.9 202.582 563.6 202.582 532ZM221.782 532C221.782 558.6 228.082 579.7 240.682 595.3C253.482 610.7 270.482 618.4 291.682 618.4C313.682 618.4 330.682 610.8 342.682 595.6C354.682 580.2 360.682 559 360.682 532C360.682 504.8 354.582 483.6 342.382 468.4C330.382 453.2 313.282 445.6 291.082 445.6C269.482 445.6 252.482 453.3 240.082 468.7C227.882 483.9 221.782 505 221.782 532ZM16.5 1064V861.8H35.1V1064H16.5ZM195.727 861.8V878.9H139.627V1064H121.027V878.9H65.2266V861.8H195.727Z" fill="#1C1C1C"/>
</svg>
