<svg width="56" height="20" viewBox="0 0 56 20" fill="none" xmlns="http://www.w3.org/2000/svg">
<path d="M55.5556 0L14.9117 17.7979C11.5413 19.2644 8.71029 20 6.42092 20C3.8283 20 1.94634 19.0668 0.779668 17.198C0.0458657 15.9981 -0.169414 14.4768 0.131515 12.6318C0.432443 10.7868 1.23338 8.82276 2.52968 6.73253C3.61071 5.04226 5.38156 2.82109 7.84685 0.0666584C7.01065 1.42046 6.39747 2.90693 6.03202 4.46613C5.38387 7.31103 5.96721 9.39888 7.78204 10.7321C8.64547 11.3534 9.83298 11.6653 11.3469 11.6653C12.5552 11.6653 13.9163 11.4653 15.4302 11.0653L55.5556 0Z" fill="black"/>
</svg>
